<?xml version="1.0" encoding="utf-8"?>
<!-- Generator: Adobe Illustrator 24.1.0, SVG Export Plug-In . SVG Version: 6.00 Build 0)  -->
<svg version="1.1" id="Layer_1" xmlns="http://www.w3.org/2000/svg" xmlns:xlink="http://www.w3.org/1999/xlink" x="0px" y="0px"
	 viewBox="0 0 315.8 27.9" style="enable-background:new 0 0 315.8 27.9;" xml:space="preserve">
<style type="text/css">
	.st0{opacity:0.2;fill:#302878;}
	.st1{fill:#302878;}
	.st2{fill:#2CB6B9;}
	.st3{fill:#E32285;}
</style>
<g>
	<polygon class="st0" points="19.5,27.8 12.8,27.8 10.6,0.2 17.2,0.2 	"/>
	<polygon class="st0" points="32.3,27.8 25.7,27.8 23.5,0.2 30.1,0.2 	"/>
	<polygon class="st1" points="6.6,27.8 0,27.8 10.6,0.2 17.3,0.2 	"/>
	<polygon class="st2" points="19.4,27.8 12.8,27.8 23.5,0.2 30.1,0.2 	"/>
	<polygon class="st3" points="32.3,27.8 25.7,27.8 36.3,0.2 42.9,0.2 	"/>
	<g>
		<path class="st2" d="M58.9,0.2v1h-2.8v7.7H55V1.2h-2.8v-1H58.9z"/>
		<path class="st2" d="M60,8.9V0h1.1v3.6c0.3-0.3,0.6-0.5,0.9-0.7c0.3-0.2,0.7-0.3,1.1-0.3c0.3,0,0.6,0.1,0.9,0.2
			c0.3,0.1,0.5,0.3,0.6,0.5c0.2,0.2,0.3,0.4,0.4,0.7c0.1,0.3,0.1,0.6,0.1,0.9v3.9H64V5c0-0.5-0.1-0.8-0.3-1.1
			c-0.2-0.3-0.5-0.4-1-0.4c-0.3,0-0.6,0.1-0.9,0.2c-0.3,0.2-0.5,0.4-0.8,0.6v4.5H60z"/>
		<path class="st2" d="M69.2,2.7c0.4,0,0.7,0.1,1,0.2C70.5,3,70.8,3.2,71,3.4c0.2,0.2,0.4,0.5,0.5,0.9c0.1,0.3,0.2,0.7,0.2,1.2
			c0,0.2,0,0.3-0.1,0.3c0,0.1-0.1,0.1-0.2,0.1h-4.1c0,0.4,0.1,0.7,0.2,1c0.1,0.3,0.2,0.5,0.4,0.7c0.2,0.2,0.4,0.3,0.6,0.4
			c0.2,0.1,0.5,0.1,0.8,0.1c0.3,0,0.5,0,0.7-0.1c0.2-0.1,0.4-0.1,0.5-0.2c0.1-0.1,0.3-0.1,0.4-0.2C71,7.6,71,7.6,71.1,7.6
			c0.1,0,0.2,0,0.2,0.1L71.6,8c-0.1,0.2-0.3,0.3-0.5,0.4c-0.2,0.1-0.4,0.2-0.6,0.3c-0.2,0.1-0.4,0.1-0.7,0.2C69.7,9,69.4,9,69.2,9
			c-0.4,0-0.8-0.1-1.2-0.2c-0.4-0.1-0.7-0.4-0.9-0.6c-0.3-0.3-0.5-0.6-0.6-1c-0.1-0.4-0.2-0.9-0.2-1.4c0-0.4,0.1-0.8,0.2-1.2
			c0.1-0.4,0.3-0.7,0.6-1c0.2-0.3,0.5-0.5,0.9-0.6C68.3,2.8,68.7,2.7,69.2,2.7z M69.2,3.5c-0.5,0-0.9,0.2-1.2,0.5
			c-0.3,0.3-0.5,0.7-0.6,1.2h3.3c0-0.2,0-0.5-0.1-0.7c-0.1-0.2-0.2-0.4-0.3-0.5c-0.1-0.2-0.3-0.3-0.5-0.4
			C69.6,3.5,69.4,3.5,69.2,3.5z"/>
		<path class="st2" d="M80,6.1c0,0.1,0.1,0.2,0.1,0.3c0-0.1,0.1-0.2,0.1-0.3c0-0.1,0.1-0.2,0.2-0.3l2.9-5.3c0.1-0.1,0.1-0.1,0.2-0.2
			c0.1,0,0.1,0,0.2,0h0.9v8.7h-1V2.5c0-0.1,0-0.2,0-0.3c0-0.1,0-0.2,0-0.3l-3,5.4c-0.1,0.2-0.2,0.3-0.4,0.3H80
			c-0.2,0-0.3-0.1-0.4-0.3l-3-5.4c0,0.1,0,0.2,0,0.3c0,0.1,0,0.2,0,0.3v6.4h-1V0.2h0.9c0.1,0,0.2,0,0.2,0c0.1,0,0.1,0.1,0.2,0.2
			l3,5.3C79.9,5.9,79.9,6,80,6.1z"/>
		<path class="st2" d="M91,8.9h-0.5c-0.1,0-0.2,0-0.3,0c-0.1,0-0.1-0.1-0.1-0.2l-0.1-0.6c-0.2,0.1-0.3,0.3-0.5,0.4
			c-0.2,0.1-0.3,0.2-0.5,0.3c-0.2,0.1-0.3,0.1-0.5,0.2C88.4,9,88.2,9,87.9,9c-0.2,0-0.5,0-0.7-0.1s-0.4-0.2-0.5-0.3
			c-0.2-0.1-0.3-0.3-0.4-0.5s-0.1-0.4-0.1-0.7c0-0.2,0.1-0.5,0.2-0.7c0.1-0.2,0.3-0.4,0.6-0.6c0.3-0.2,0.7-0.3,1.2-0.4
			c0.5-0.1,1.1-0.2,1.8-0.2V5c0-0.5-0.1-0.8-0.3-1.1c-0.2-0.2-0.5-0.4-0.9-0.4c-0.3,0-0.5,0-0.7,0.1c-0.2,0.1-0.3,0.1-0.5,0.2
			C87.5,4,87.4,4,87.3,4.1c-0.1,0.1-0.2,0.1-0.3,0.1c-0.1,0-0.1,0-0.2-0.1c-0.1,0-0.1-0.1-0.1-0.1l-0.2-0.3c0.3-0.3,0.7-0.6,1.1-0.7
			c0.4-0.2,0.8-0.2,1.3-0.2c0.3,0,0.6,0.1,0.9,0.2c0.3,0.1,0.5,0.3,0.7,0.5c0.2,0.2,0.3,0.4,0.4,0.7C91,4.3,91,4.6,91,5V8.9z
			 M88.2,8.2c0.2,0,0.4,0,0.5-0.1c0.2,0,0.3-0.1,0.4-0.2c0.1-0.1,0.3-0.2,0.4-0.3c0.1-0.1,0.3-0.2,0.4-0.3V6.2c-0.5,0-0.9,0-1.3,0.1
			c-0.3,0.1-0.6,0.1-0.8,0.2c-0.2,0.1-0.4,0.2-0.5,0.4c-0.1,0.1-0.1,0.3-0.1,0.5c0,0.2,0,0.3,0.1,0.4C87.4,7.9,87.4,8,87.5,8
			c0.1,0.1,0.2,0.1,0.3,0.2C88,8.2,88.1,8.2,88.2,8.2z"/>
		<path class="st2" d="M92.7,8.9V2.8h0.6c0.1,0,0.2,0,0.2,0.1c0,0,0.1,0.1,0.1,0.2l0.1,1c0.2-0.4,0.5-0.8,0.8-1
			c0.3-0.2,0.7-0.4,1.1-0.4c0.2,0,0.3,0,0.5,0.1c0.1,0,0.3,0.1,0.4,0.2l-0.1,0.8c0,0.1-0.1,0.2-0.2,0.2c-0.1,0-0.1,0-0.3-0.1
			c-0.1,0-0.3-0.1-0.5-0.1c-0.4,0-0.7,0.1-0.9,0.3c-0.3,0.2-0.5,0.5-0.6,0.9v3.9H92.7z"/>
		<path class="st2" d="M98.7,0v5.2h0.3c0.1,0,0.1,0,0.2,0c0.1,0,0.1-0.1,0.2-0.1l1.9-2.1c0.1-0.1,0.1-0.1,0.2-0.2
			c0.1,0,0.1-0.1,0.2-0.1h1l-2.3,2.4c-0.1,0.1-0.1,0.1-0.2,0.2c-0.1,0.1-0.1,0.1-0.2,0.1c0.1,0,0.1,0.1,0.2,0.2s0.1,0.1,0.2,0.2
			l2.4,3h-1c-0.1,0-0.2,0-0.2-0.1c-0.1,0-0.1-0.1-0.2-0.2l-2-2.5C99.4,6.1,99.3,6,99.2,6c-0.1,0-0.2,0-0.3,0h-0.3v2.9h-1.1V0H98.7z"
			/>
		<path class="st2" d="M111.7,0.2v1h-4.2v3h3.6v1h-3.6v3.7h-1.2V0.2H111.7z"/>
		<path class="st2" d="M115.1,2.7c0.4,0,0.9,0.1,1.2,0.2c0.4,0.1,0.7,0.4,0.9,0.6c0.3,0.3,0.4,0.6,0.6,1c0.1,0.4,0.2,0.8,0.2,1.3
			c0,0.5-0.1,0.9-0.2,1.3c-0.1,0.4-0.3,0.7-0.6,1c-0.3,0.3-0.6,0.5-0.9,0.6C116,8.9,115.6,9,115.1,9s-0.9-0.1-1.2-0.2
			c-0.4-0.1-0.7-0.4-0.9-0.6c-0.3-0.3-0.4-0.6-0.6-1c-0.1-0.4-0.2-0.8-0.2-1.3c0-0.5,0.1-0.9,0.2-1.3c0.1-0.4,0.3-0.7,0.6-1
			c0.3-0.3,0.6-0.5,0.9-0.6C114.3,2.8,114.7,2.7,115.1,2.7z M115.1,8.2c0.6,0,1.1-0.2,1.4-0.6c0.3-0.4,0.4-1,0.4-1.7
			c0-0.7-0.1-1.3-0.4-1.7c-0.3-0.4-0.7-0.6-1.4-0.6c-0.3,0-0.6,0.1-0.8,0.2c-0.2,0.1-0.4,0.3-0.6,0.5c-0.2,0.2-0.3,0.4-0.3,0.7
			c-0.1,0.3-0.1,0.6-0.1,1s0,0.7,0.1,1c0.1,0.3,0.2,0.5,0.3,0.7c0.2,0.2,0.3,0.3,0.6,0.5C114.5,8.1,114.8,8.2,115.1,8.2z"/>
		<path class="st2" d="M120.3,2.8v3.9c0,0.5,0.1,0.8,0.3,1.1c0.2,0.3,0.5,0.4,1,0.4c0.3,0,0.6-0.1,0.9-0.2c0.3-0.1,0.5-0.4,0.8-0.6
			V2.8h1.1v6.1h-0.6c-0.2,0-0.3-0.1-0.3-0.2L123.3,8c-0.3,0.3-0.6,0.5-0.9,0.7c-0.3,0.2-0.7,0.3-1.1,0.3c-0.3,0-0.6-0.1-0.9-0.2
			c-0.3-0.1-0.5-0.3-0.6-0.5c-0.2-0.2-0.3-0.4-0.4-0.7c-0.1-0.3-0.1-0.6-0.1-0.9V2.8H120.3z"/>
		<path class="st2" d="M126.1,8.9V2.8h0.6c0.2,0,0.2,0.1,0.3,0.2l0.1,0.7c0.3-0.3,0.6-0.5,0.9-0.7c0.3-0.2,0.7-0.3,1.1-0.3
			c0.3,0,0.6,0.1,0.9,0.2c0.3,0.1,0.5,0.3,0.6,0.5c0.2,0.2,0.3,0.4,0.4,0.7c0.1,0.3,0.1,0.6,0.1,0.9v3.9h-1.1V5
			c0-0.5-0.1-0.8-0.3-1.1c-0.2-0.3-0.5-0.4-1-0.4c-0.3,0-0.6,0.1-0.9,0.2c-0.3,0.2-0.5,0.4-0.8,0.6v4.5H126.1z"/>
		<path class="st2" d="M137.1,8.9c-0.2,0-0.3-0.1-0.3-0.2l-0.1-0.7c-0.3,0.3-0.6,0.6-0.9,0.8c-0.3,0.2-0.7,0.3-1.2,0.3
			c-0.4,0-0.7-0.1-1-0.2c-0.3-0.1-0.5-0.3-0.7-0.6c-0.2-0.3-0.4-0.6-0.5-1s-0.2-0.8-0.2-1.3c0-0.5,0.1-0.9,0.2-1.3
			c0.1-0.4,0.3-0.7,0.5-1c0.2-0.3,0.5-0.5,0.8-0.7c0.3-0.2,0.7-0.2,1.1-0.2c0.4,0,0.7,0.1,1,0.2c0.3,0.1,0.5,0.3,0.7,0.5V0h1.1v8.9
			H137.1z M135,8.1c0.4,0,0.7-0.1,0.9-0.2c0.3-0.2,0.5-0.4,0.7-0.7v-3c-0.2-0.3-0.4-0.5-0.6-0.6c-0.2-0.1-0.5-0.2-0.8-0.2
			c-0.6,0-1,0.2-1.3,0.6s-0.5,1-0.5,1.7c0,0.4,0,0.7,0.1,1c0.1,0.3,0.2,0.5,0.3,0.7c0.1,0.2,0.3,0.3,0.5,0.4
			C134.6,8.1,134.8,8.1,135,8.1z"/>
		<path class="st2" d="M144.1,8.9h-0.5c-0.1,0-0.2,0-0.3,0s-0.1-0.1-0.1-0.2l-0.1-0.6c-0.2,0.1-0.3,0.3-0.5,0.4
			c-0.2,0.1-0.3,0.2-0.5,0.3c-0.2,0.1-0.3,0.1-0.5,0.2C141.4,9,141.2,9,141,9c-0.2,0-0.5,0-0.7-0.1c-0.2-0.1-0.4-0.2-0.5-0.3
			c-0.2-0.1-0.3-0.3-0.4-0.5s-0.1-0.4-0.1-0.7c0-0.2,0.1-0.5,0.2-0.7c0.1-0.2,0.3-0.4,0.6-0.6c0.3-0.2,0.7-0.3,1.2-0.4
			c0.5-0.1,1.1-0.2,1.8-0.2V5c0-0.5-0.1-0.8-0.3-1.1c-0.2-0.2-0.5-0.4-0.9-0.4c-0.3,0-0.5,0-0.7,0.1c-0.2,0.1-0.3,0.1-0.5,0.2
			c-0.1,0.1-0.2,0.2-0.3,0.2c-0.1,0.1-0.2,0.1-0.3,0.1c-0.1,0-0.1,0-0.2-0.1c-0.1,0-0.1-0.1-0.1-0.1l-0.2-0.3
			c0.3-0.3,0.7-0.6,1.1-0.7c0.4-0.2,0.8-0.2,1.3-0.2c0.3,0,0.6,0.1,0.9,0.2c0.3,0.1,0.5,0.3,0.7,0.5c0.2,0.2,0.3,0.4,0.4,0.7
			c0.1,0.3,0.1,0.6,0.1,0.9V8.9z M141.3,8.2c0.2,0,0.4,0,0.5-0.1c0.2,0,0.3-0.1,0.4-0.2c0.1-0.1,0.3-0.2,0.4-0.3
			c0.1-0.1,0.3-0.2,0.4-0.3V6.2c-0.5,0-0.9,0-1.3,0.1c-0.3,0.1-0.6,0.1-0.8,0.2c-0.2,0.1-0.4,0.2-0.5,0.4c-0.1,0.1-0.1,0.3-0.1,0.5
			c0,0.2,0,0.3,0.1,0.4c0.1,0.1,0.1,0.2,0.2,0.3c0.1,0.1,0.2,0.1,0.3,0.2C141,8.2,141.1,8.2,141.3,8.2z"/>
		<path class="st2" d="M147.6,9c-0.5,0-0.9-0.1-1.1-0.4c-0.3-0.3-0.4-0.7-0.4-1.2V3.7h-0.7c-0.1,0-0.1,0-0.2-0.1
			c0,0-0.1-0.1-0.1-0.2V3l1-0.1l0.2-1.9c0-0.1,0-0.1,0.1-0.1c0,0,0.1-0.1,0.2-0.1h0.5v2.1h1.8v0.8h-1.8v3.7c0,0.3,0.1,0.4,0.2,0.6
			c0.1,0.1,0.3,0.2,0.5,0.2c0.1,0,0.2,0,0.3,0c0.1,0,0.2-0.1,0.2-0.1c0.1,0,0.1-0.1,0.2-0.1c0,0,0.1,0,0.1,0c0.1,0,0.1,0,0.2,0.1
			l0.3,0.5c-0.2,0.2-0.4,0.3-0.7,0.4S147.8,9,147.6,9z"/>
		<path class="st2" d="M151.6,0.9c0,0.1,0,0.2-0.1,0.3c0,0.1-0.1,0.2-0.2,0.2c-0.1,0.1-0.2,0.1-0.2,0.2c-0.1,0-0.2,0.1-0.3,0.1
			s-0.2,0-0.3-0.1c-0.1,0-0.2-0.1-0.2-0.2c-0.1-0.1-0.1-0.2-0.2-0.2c0-0.1-0.1-0.2-0.1-0.3s0-0.2,0.1-0.3c0-0.1,0.1-0.2,0.2-0.2
			s0.2-0.1,0.2-0.2c0.1,0,0.2-0.1,0.3-0.1s0.2,0,0.3,0.1s0.2,0.1,0.2,0.2s0.1,0.2,0.2,0.2C151.6,0.7,151.6,0.8,151.6,0.9z
			 M151.4,2.8v6.1h-1.1V2.8H151.4z"/>
		<path class="st2" d="M155.8,2.7c0.4,0,0.9,0.1,1.2,0.2c0.4,0.1,0.7,0.4,0.9,0.6c0.3,0.3,0.4,0.6,0.6,1c0.1,0.4,0.2,0.8,0.2,1.3
			c0,0.5-0.1,0.9-0.2,1.3c-0.1,0.4-0.3,0.7-0.6,1c-0.3,0.3-0.6,0.5-0.9,0.6c-0.4,0.1-0.8,0.2-1.2,0.2c-0.4,0-0.9-0.1-1.2-0.2
			c-0.4-0.1-0.7-0.4-0.9-0.6c-0.3-0.3-0.4-0.6-0.6-1c-0.1-0.4-0.2-0.8-0.2-1.3c0-0.5,0.1-0.9,0.2-1.3c0.1-0.4,0.3-0.7,0.6-1
			c0.3-0.3,0.6-0.5,0.9-0.6C154.9,2.8,155.3,2.7,155.8,2.7z M155.8,8.2c0.6,0,1.1-0.2,1.4-0.6c0.3-0.4,0.4-1,0.4-1.7
			c0-0.7-0.1-1.3-0.4-1.7c-0.3-0.4-0.7-0.6-1.4-0.6c-0.3,0-0.6,0.1-0.8,0.2c-0.2,0.1-0.4,0.3-0.6,0.5c-0.2,0.2-0.3,0.4-0.3,0.7
			s-0.1,0.6-0.1,1s0,0.7,0.1,1c0.1,0.3,0.2,0.5,0.3,0.7c0.2,0.2,0.3,0.3,0.6,0.5C155.2,8.1,155.5,8.2,155.8,8.2z"/>
		<path class="st2" d="M160,8.9V2.8h0.6c0.2,0,0.2,0.1,0.3,0.2l0.1,0.7c0.3-0.3,0.6-0.5,0.9-0.7c0.3-0.2,0.7-0.3,1.1-0.3
			c0.3,0,0.6,0.1,0.9,0.2c0.3,0.1,0.5,0.3,0.6,0.5c0.2,0.2,0.3,0.4,0.4,0.7c0.1,0.3,0.1,0.6,0.1,0.9v3.9h-1.1V5
			c0-0.5-0.1-0.8-0.3-1.1c-0.2-0.3-0.5-0.4-1-0.4c-0.3,0-0.6,0.1-0.9,0.2c-0.3,0.2-0.5,0.4-0.8,0.6v4.5H160z"/>
		<path class="st2" d="M170.6,8.9h-1.2V0.2h1.2V8.9z"/>
		<path class="st2" d="M172.8,8.9V2.8h0.6c0.2,0,0.2,0.1,0.3,0.2l0.1,0.7c0.3-0.3,0.6-0.5,0.9-0.7c0.3-0.2,0.7-0.3,1.1-0.3
			c0.3,0,0.6,0.1,0.9,0.2c0.3,0.1,0.5,0.3,0.6,0.5c0.2,0.2,0.3,0.4,0.4,0.7c0.1,0.3,0.1,0.6,0.1,0.9v3.9h-1.1V5
			c0-0.5-0.1-0.8-0.3-1.1c-0.2-0.3-0.5-0.4-1-0.4c-0.3,0-0.6,0.1-0.9,0.2c-0.3,0.2-0.5,0.4-0.8,0.6v4.5H172.8z"/>
		<path class="st2" d="M183,3.8c0,0.1-0.1,0.1-0.2,0.1c-0.1,0-0.1,0-0.2-0.1c-0.1,0-0.2-0.1-0.3-0.1c-0.1-0.1-0.2-0.1-0.4-0.2
			c-0.2,0-0.3-0.1-0.5-0.1c-0.2,0-0.3,0-0.5,0.1c-0.1,0-0.3,0.1-0.4,0.2c-0.1,0.1-0.2,0.2-0.2,0.3c-0.1,0.1-0.1,0.2-0.1,0.3
			c0,0.2,0,0.3,0.1,0.4c0.1,0.1,0.2,0.2,0.4,0.3c0.1,0.1,0.3,0.1,0.5,0.2c0.2,0.1,0.4,0.1,0.6,0.2s0.4,0.1,0.6,0.2
			c0.2,0.1,0.4,0.2,0.5,0.3c0.1,0.1,0.3,0.3,0.4,0.4c0.1,0.2,0.1,0.4,0.1,0.6c0,0.3-0.1,0.5-0.2,0.8c-0.1,0.2-0.3,0.4-0.4,0.6
			s-0.4,0.3-0.7,0.4c-0.3,0.1-0.6,0.2-1,0.2c-0.4,0-0.8-0.1-1.2-0.2c-0.3-0.1-0.6-0.3-0.9-0.5l0.3-0.4c0-0.1,0.1-0.1,0.1-0.1
			c0,0,0.1,0,0.2,0c0.1,0,0.1,0,0.2,0.1c0.1,0.1,0.2,0.1,0.3,0.2c0.1,0.1,0.3,0.1,0.4,0.2c0.2,0.1,0.4,0.1,0.6,0.1
			c0.2,0,0.4,0,0.6-0.1c0.2-0.1,0.3-0.1,0.4-0.2c0.1-0.1,0.2-0.2,0.2-0.3c0.1-0.1,0.1-0.2,0.1-0.4c0-0.2,0-0.3-0.1-0.4
			c-0.1-0.1-0.2-0.2-0.4-0.3c-0.1-0.1-0.3-0.1-0.5-0.2c-0.2-0.1-0.4-0.1-0.6-0.2c-0.2-0.1-0.4-0.1-0.6-0.2c-0.2-0.1-0.4-0.2-0.5-0.3
			c-0.1-0.1-0.3-0.3-0.4-0.5c-0.1-0.2-0.1-0.4-0.1-0.7c0-0.2,0-0.5,0.1-0.7c0.1-0.2,0.2-0.4,0.4-0.6c0.2-0.2,0.4-0.3,0.7-0.4
			c0.3-0.1,0.6-0.1,0.9-0.1c0.4,0,0.8,0.1,1.1,0.2c0.3,0.1,0.6,0.3,0.8,0.5L183,3.8z"/>
		<path class="st2" d="M186.6,9c-0.5,0-0.9-0.1-1.1-0.4c-0.3-0.3-0.4-0.7-0.4-1.2V3.7h-0.7c-0.1,0-0.1,0-0.2-0.1
			c0,0-0.1-0.1-0.1-0.2V3l1-0.1l0.2-1.9c0-0.1,0-0.1,0.1-0.1c0,0,0.1-0.1,0.2-0.1h0.5v2.1h1.8v0.8h-1.8v3.7c0,0.3,0.1,0.4,0.2,0.6
			c0.1,0.1,0.3,0.2,0.5,0.2c0.1,0,0.2,0,0.3,0c0.1,0,0.2-0.1,0.2-0.1c0.1,0,0.1-0.1,0.2-0.1c0,0,0.1,0,0.1,0c0.1,0,0.1,0,0.2,0.1
			l0.3,0.5c-0.2,0.2-0.4,0.3-0.7,0.4C187.2,9,186.9,9,186.6,9z"/>
		<path class="st2" d="M190.7,0.9c0,0.1,0,0.2-0.1,0.3c0,0.1-0.1,0.2-0.2,0.2c-0.1,0.1-0.2,0.1-0.2,0.2c-0.1,0-0.2,0.1-0.3,0.1
			s-0.2,0-0.3-0.1c-0.1,0-0.2-0.1-0.2-0.2c-0.1-0.1-0.1-0.2-0.2-0.2c0-0.1-0.1-0.2-0.1-0.3s0-0.2,0.1-0.3c0-0.1,0.1-0.2,0.2-0.2
			s0.2-0.1,0.2-0.2c0.1,0,0.2-0.1,0.3-0.1s0.2,0,0.3,0.1s0.2,0.1,0.2,0.2s0.1,0.2,0.2,0.2C190.7,0.7,190.7,0.8,190.7,0.9z
			 M190.5,2.8v6.1h-1.1V2.8H190.5z"/>
		<path class="st2" d="M194.2,9c-0.5,0-0.9-0.1-1.1-0.4c-0.3-0.3-0.4-0.7-0.4-1.2V3.7H192c-0.1,0-0.1,0-0.2-0.1c0,0-0.1-0.1-0.1-0.2
			V3l1-0.1L193,1c0-0.1,0-0.1,0.1-0.1c0,0,0.1-0.1,0.2-0.1h0.5v2.1h1.8v0.8h-1.8v3.7c0,0.3,0.1,0.4,0.2,0.6c0.1,0.1,0.3,0.2,0.5,0.2
			c0.1,0,0.2,0,0.3,0c0.1,0,0.2-0.1,0.2-0.1c0.1,0,0.1-0.1,0.2-0.1c0,0,0.1,0,0.1,0c0.1,0,0.1,0,0.2,0.1l0.3,0.5
			c-0.2,0.2-0.4,0.3-0.7,0.4C194.8,9,194.5,9,194.2,9z"/>
		<path class="st2" d="M197.8,2.8v3.9c0,0.5,0.1,0.8,0.3,1.1c0.2,0.3,0.5,0.4,1,0.4c0.3,0,0.6-0.1,0.9-0.2s0.5-0.4,0.8-0.6V2.8h1.1
			v6.1h-0.6c-0.2,0-0.3-0.1-0.3-0.2L200.8,8c-0.3,0.3-0.6,0.5-0.9,0.7c-0.3,0.2-0.7,0.3-1.1,0.3c-0.3,0-0.6-0.1-0.9-0.2
			c-0.3-0.1-0.5-0.3-0.6-0.5c-0.2-0.2-0.3-0.4-0.4-0.7c-0.1-0.3-0.1-0.6-0.1-0.9V2.8H197.8z"/>
		<path class="st2" d="M205.5,9c-0.5,0-0.9-0.1-1.1-0.4c-0.3-0.3-0.4-0.7-0.4-1.2V3.7h-0.7c-0.1,0-0.1,0-0.2-0.1
			c0,0-0.1-0.1-0.1-0.2V3l1-0.1l0.2-1.9c0-0.1,0-0.1,0.1-0.1c0,0,0.1-0.1,0.2-0.1h0.5v2.1h1.8v0.8H205v3.7c0,0.3,0.1,0.4,0.2,0.6
			c0.1,0.1,0.3,0.2,0.5,0.2c0.1,0,0.2,0,0.3,0c0.1,0,0.2-0.1,0.2-0.1c0.1,0,0.1-0.1,0.2-0.1c0,0,0.1,0,0.1,0c0.1,0,0.1,0,0.2,0.1
			l0.3,0.5c-0.2,0.2-0.4,0.3-0.7,0.4C206,9,205.8,9,205.5,9z"/>
		<path class="st2" d="M210.6,2.7c0.4,0,0.7,0.1,1,0.2c0.3,0.1,0.6,0.3,0.8,0.5c0.2,0.2,0.4,0.5,0.5,0.9c0.1,0.3,0.2,0.7,0.2,1.2
			c0,0.2,0,0.3-0.1,0.3c0,0.1-0.1,0.1-0.2,0.1h-4.1c0,0.4,0.1,0.7,0.2,1c0.1,0.3,0.2,0.5,0.4,0.7s0.4,0.3,0.6,0.4s0.5,0.1,0.8,0.1
			c0.3,0,0.5,0,0.7-0.1c0.2-0.1,0.4-0.1,0.5-0.2c0.1-0.1,0.3-0.1,0.4-0.2c0.1-0.1,0.2-0.1,0.2-0.1c0.1,0,0.2,0,0.2,0.1L213,8
			c-0.1,0.2-0.3,0.3-0.5,0.4c-0.2,0.1-0.4,0.2-0.6,0.3c-0.2,0.1-0.4,0.1-0.7,0.2c-0.2,0-0.4,0.1-0.7,0.1c-0.4,0-0.8-0.1-1.2-0.2
			c-0.4-0.1-0.7-0.4-0.9-0.6c-0.3-0.3-0.5-0.6-0.6-1c-0.1-0.4-0.2-0.9-0.2-1.4c0-0.4,0.1-0.8,0.2-1.2c0.1-0.4,0.3-0.7,0.6-1
			s0.5-0.5,0.9-0.6C209.7,2.8,210.1,2.7,210.6,2.7z M210.6,3.5c-0.5,0-0.9,0.2-1.2,0.5c-0.3,0.3-0.5,0.7-0.6,1.2h3.3
			c0-0.2,0-0.5-0.1-0.7c-0.1-0.2-0.2-0.4-0.3-0.5c-0.1-0.2-0.3-0.3-0.5-0.4C211,3.5,210.8,3.5,210.6,3.5z"/>
		<path class="st2" d="M217,8.9V3.7l-0.7-0.1c-0.1,0-0.2-0.1-0.2-0.1c-0.1,0-0.1-0.1-0.1-0.2V2.9h1V2.3c0-0.4,0-0.7,0.1-0.9
			c0.1-0.3,0.2-0.5,0.4-0.7c0.2-0.2,0.4-0.3,0.7-0.4c0.3-0.1,0.5-0.1,0.9-0.1c0.3,0,0.5,0,0.8,0.1l0,0.5c0,0.1,0,0.1-0.1,0.1
			c-0.1,0-0.2,0-0.3,0h-0.2c-0.2,0-0.4,0-0.5,0.1c-0.2,0-0.3,0.1-0.4,0.2c-0.1,0.1-0.2,0.3-0.3,0.4c-0.1,0.2-0.1,0.4-0.1,0.7v0.6
			h1.8v0.8h-1.7v5.2H217z"/>
		<path class="st2" d="M223.4,2.7c0.4,0,0.9,0.1,1.2,0.2c0.4,0.1,0.7,0.4,0.9,0.6c0.3,0.3,0.4,0.6,0.6,1c0.1,0.4,0.2,0.8,0.2,1.3
			c0,0.5-0.1,0.9-0.2,1.3c-0.1,0.4-0.3,0.7-0.6,1c-0.3,0.3-0.6,0.5-0.9,0.6c-0.4,0.1-0.8,0.2-1.2,0.2c-0.4,0-0.9-0.1-1.2-0.2
			c-0.4-0.1-0.7-0.4-0.9-0.6c-0.3-0.3-0.4-0.6-0.6-1c-0.1-0.4-0.2-0.8-0.2-1.3c0-0.5,0.1-0.9,0.2-1.3c0.1-0.4,0.3-0.7,0.6-1
			c0.3-0.3,0.6-0.5,0.9-0.6C222.5,2.8,222.9,2.7,223.4,2.7z M223.4,8.2c0.6,0,1.1-0.2,1.4-0.6c0.3-0.4,0.4-1,0.4-1.7
			c0-0.7-0.1-1.3-0.4-1.7c-0.3-0.4-0.7-0.6-1.4-0.6c-0.3,0-0.6,0.1-0.8,0.2c-0.2,0.1-0.4,0.3-0.6,0.5c-0.2,0.2-0.3,0.4-0.3,0.7
			s-0.1,0.6-0.1,1s0,0.7,0.1,1c0.1,0.3,0.2,0.5,0.3,0.7c0.2,0.2,0.3,0.3,0.6,0.5C222.8,8.1,223,8.2,223.4,8.2z"/>
		<path class="st2" d="M227.6,8.9V2.8h0.6c0.1,0,0.2,0,0.2,0.1c0,0,0.1,0.1,0.1,0.2l0.1,1c0.2-0.4,0.5-0.8,0.8-1
			c0.3-0.2,0.7-0.4,1.1-0.4c0.2,0,0.3,0,0.5,0.1c0.1,0,0.3,0.1,0.4,0.2l-0.1,0.8c0,0.1-0.1,0.2-0.2,0.2c-0.1,0-0.1,0-0.3-0.1
			c-0.1,0-0.3-0.1-0.5-0.1c-0.4,0-0.7,0.1-0.9,0.3c-0.3,0.2-0.5,0.5-0.6,0.9v3.9H227.6z"/>
		<path class="st1" d="M55.5,27.8h-1.7V15.5h1.7V27.8z"/>
		<path class="st1" d="M59.9,15.6c0.1,0,0.2,0.1,0.2,0.2l7.1,9.2c0-0.1,0-0.3,0-0.4c0-0.1,0-0.3,0-0.4v-8.7h1.5v12.3h-0.8
			c-0.1,0-0.2,0-0.3-0.1c-0.1,0-0.2-0.1-0.3-0.2l-7.1-9.2c0,0.1,0,0.3,0,0.4c0,0.1,0,0.3,0,0.4v8.7h-1.5V15.5h0.9
			C59.7,15.5,59.9,15.5,59.9,15.6z"/>
		<path class="st1" d="M80,15.5v1.4h-4v10.9h-1.7V16.9h-4v-1.4H80z"/>
		<path class="st1" d="M89.4,15.5v1.4h-5.9V21h4.8v1.3h-4.8v4.2h5.9v1.4h-7.6V15.5H89.4z"/>
		<path class="st1" d="M97.2,26.6c0.3,0,0.6,0,0.9,0c0.3,0,0.5-0.1,0.8-0.1c0.2-0.1,0.5-0.1,0.7-0.2c0.2-0.1,0.4-0.2,0.7-0.3v-2.7
			h-1.9c-0.1,0-0.2,0-0.3-0.1C98,23,98,22.9,98,22.8v-0.9h3.8v4.7c-0.3,0.2-0.6,0.4-1,0.6c-0.3,0.2-0.7,0.3-1.1,0.4
			c-0.4,0.1-0.8,0.2-1.2,0.2c-0.4,0.1-0.9,0.1-1.4,0.1c-0.9,0-1.7-0.2-2.4-0.5c-0.7-0.3-1.4-0.7-1.9-1.3c-0.5-0.6-1-1.2-1.3-2
			c-0.3-0.8-0.4-1.6-0.4-2.5c0-0.9,0.1-1.8,0.4-2.6c0.3-0.8,0.7-1.4,1.3-2c0.5-0.6,1.2-1,2-1.3c0.8-0.3,1.6-0.5,2.6-0.5
			c0.5,0,0.9,0,1.4,0.1c0.4,0.1,0.8,0.2,1.2,0.3c0.4,0.1,0.7,0.3,1,0.5c0.3,0.2,0.6,0.4,0.8,0.6l-0.5,0.8c-0.1,0.2-0.2,0.2-0.4,0.2
			c-0.1,0-0.2,0-0.3-0.1c-0.1-0.1-0.3-0.2-0.5-0.3c-0.2-0.1-0.4-0.2-0.6-0.3c-0.3-0.1-0.6-0.2-0.9-0.3c-0.3-0.1-0.8-0.1-1.2-0.1
			c-0.7,0-1.3,0.1-1.9,0.3c-0.6,0.2-1,0.5-1.4,1c-0.4,0.4-0.7,0.9-0.9,1.5c-0.2,0.6-0.3,1.3-0.3,2c0,0.8,0.1,1.5,0.3,2.1
			c0.2,0.6,0.5,1.1,0.9,1.5c0.4,0.4,0.9,0.7,1.4,1C95.9,26.5,96.6,26.6,97.2,26.6z"/>
		<path class="st1" d="M106.1,22.7v5.1h-1.7V15.5h3.5c0.8,0,1.4,0.1,2,0.2c0.6,0.2,1,0.4,1.4,0.7c0.4,0.3,0.6,0.7,0.8,1.1
			c0.2,0.4,0.3,0.9,0.3,1.4c0,0.4-0.1,0.8-0.2,1.2c-0.1,0.4-0.3,0.7-0.6,1c-0.3,0.3-0.6,0.6-1,0.8c-0.4,0.2-0.8,0.4-1.3,0.5
			c0.2,0.1,0.4,0.3,0.5,0.5l3.6,4.9h-1.5c-0.3,0-0.5-0.1-0.7-0.4l-3.2-4.4c-0.1-0.1-0.2-0.2-0.3-0.3c-0.1-0.1-0.3-0.1-0.5-0.1H106.1
			z M106.1,21.5h1.7c0.5,0,0.9-0.1,1.3-0.2c0.4-0.1,0.7-0.3,0.9-0.5c0.2-0.2,0.4-0.5,0.6-0.8c0.1-0.3,0.2-0.6,0.2-1
			c0-0.7-0.2-1.3-0.7-1.7c-0.5-0.4-1.2-0.6-2.2-0.6h-1.8V21.5z"/>
		<path class="st1" d="M125.4,27.8h-1.3c-0.1,0-0.3,0-0.4-0.1c-0.1-0.1-0.2-0.2-0.2-0.3l-1.1-3h-5.5l-1.1,3c0,0.1-0.1,0.2-0.2,0.3
			c-0.1,0.1-0.2,0.1-0.4,0.1h-1.3l4.9-12.3h1.7L125.4,27.8z M117.4,23.2h4.6l-1.9-5c-0.1-0.3-0.2-0.7-0.4-1.2
			c-0.1,0.2-0.1,0.4-0.2,0.6c-0.1,0.2-0.1,0.4-0.2,0.5L117.4,23.2z"/>
		<path class="st1" d="M134.2,15.5v1.4h-4v10.9h-1.7V16.9h-4v-1.4H134.2z"/>
		<path class="st1" d="M143.5,15.5v1.4h-5.9V21h4.8v1.3h-4.8v4.2h5.9v1.4H136V15.5H143.5z"/>
		<path class="st1" d="M156.5,21.7c0,0.9-0.1,1.8-0.4,2.5c-0.3,0.8-0.7,1.4-1.2,1.9c-0.5,0.5-1.2,1-1.9,1.2
			c-0.7,0.3-1.6,0.4-2.5,0.4h-4.6V15.5h4.6c0.9,0,1.7,0.1,2.5,0.4c0.7,0.3,1.4,0.7,1.9,1.3c0.5,0.5,0.9,1.2,1.2,1.9
			C156.4,19.9,156.5,20.7,156.5,21.7z M154.8,21.7c0-0.8-0.1-1.4-0.3-2c-0.2-0.6-0.5-1.1-0.9-1.5c-0.4-0.4-0.8-0.7-1.4-0.9
			c-0.5-0.2-1.1-0.3-1.8-0.3h-2.9v9.6h2.9c0.7,0,1.3-0.1,1.8-0.3c0.5-0.2,1-0.5,1.4-0.9c0.4-0.4,0.7-0.9,0.9-1.5
			S154.8,22.4,154.8,21.7z"/>
		<path class="st1" d="M170.8,25.3c0.1,0,0.2,0,0.2,0.1l0.7,0.7c-0.5,0.6-1.1,1-1.8,1.4c-0.7,0.3-1.6,0.5-2.6,0.5
			c-0.9,0-1.7-0.2-2.4-0.5c-0.7-0.3-1.3-0.7-1.8-1.3c-0.5-0.6-0.9-1.2-1.2-2c-0.3-0.8-0.4-1.6-0.4-2.5c0-0.9,0.2-1.8,0.4-2.5
			c0.3-0.8,0.7-1.4,1.3-2c0.5-0.6,1.2-1,1.9-1.3c0.8-0.3,1.6-0.5,2.5-0.5c0.9,0,1.7,0.1,2.3,0.4c0.7,0.3,1.2,0.7,1.7,1.1l-0.5,0.8
			c0,0.1-0.1,0.1-0.1,0.1c-0.1,0-0.1,0.1-0.2,0.1c-0.1,0-0.2,0-0.2-0.1c-0.1-0.1-0.2-0.1-0.3-0.2s-0.2-0.2-0.4-0.3
			c-0.2-0.1-0.3-0.2-0.5-0.3s-0.5-0.1-0.7-0.2c-0.3-0.1-0.6-0.1-1-0.1c-0.7,0-1.3,0.1-1.8,0.3c-0.5,0.2-1,0.5-1.4,1
			s-0.7,0.9-0.9,1.5s-0.3,1.3-0.3,2c0,0.8,0.1,1.4,0.3,2s0.5,1.1,0.9,1.5c0.4,0.4,0.8,0.7,1.3,0.9c0.5,0.2,1.1,0.3,1.7,0.3
			c0.4,0,0.7,0,1-0.1c0.3,0,0.6-0.1,0.8-0.2s0.5-0.2,0.7-0.3c0.2-0.1,0.4-0.3,0.6-0.5C170.6,25.3,170.7,25.3,170.8,25.3z"/>
		<path class="st1" d="M183.9,27.8h-1.3c-0.1,0-0.3,0-0.4-0.1c-0.1-0.1-0.2-0.2-0.2-0.3l-1.1-3h-5.5l-1.1,3c0,0.1-0.1,0.2-0.2,0.3
			c-0.1,0.1-0.2,0.1-0.4,0.1h-1.3l4.9-12.3h1.7L183.9,27.8z M175.9,23.2h4.6l-1.9-5c-0.1-0.3-0.2-0.7-0.4-1.2
			c-0.1,0.2-0.1,0.4-0.2,0.6c-0.1,0.2-0.1,0.4-0.2,0.5L175.9,23.2z"/>
		<path class="st1" d="M186.7,15.6c0.1,0,0.2,0.1,0.2,0.2l7.1,9.2c0-0.1,0-0.3,0-0.4c0-0.1,0-0.3,0-0.4v-8.7h1.5v12.3h-0.8
			c-0.1,0-0.2,0-0.3-0.1s-0.2-0.1-0.3-0.2l-7.1-9.2c0,0.1,0,0.3,0,0.4s0,0.3,0,0.4v8.7h-1.5V15.5h0.9
			C186.5,15.5,186.6,15.5,186.7,15.6z"/>
		<path class="st1" d="M207.1,25.3c0.1,0,0.2,0,0.2,0.1l0.7,0.7c-0.5,0.6-1.1,1-1.8,1.4c-0.7,0.3-1.6,0.5-2.6,0.5
			c-0.9,0-1.7-0.2-2.4-0.5c-0.7-0.3-1.3-0.7-1.8-1.3c-0.5-0.6-0.9-1.2-1.2-2c-0.3-0.8-0.4-1.6-0.4-2.5c0-0.9,0.2-1.8,0.4-2.5
			c0.3-0.8,0.7-1.4,1.3-2c0.5-0.6,1.2-1,1.9-1.3c0.8-0.3,1.6-0.5,2.5-0.5c0.9,0,1.7,0.1,2.3,0.4c0.7,0.3,1.2,0.7,1.7,1.1l-0.5,0.8
			c0,0.1-0.1,0.1-0.1,0.1c-0.1,0-0.1,0.1-0.2,0.1c-0.1,0-0.2,0-0.2-0.1c-0.1-0.1-0.2-0.1-0.3-0.2c-0.1-0.1-0.2-0.2-0.4-0.3
			s-0.3-0.2-0.5-0.3s-0.5-0.1-0.7-0.2c-0.3-0.1-0.6-0.1-1-0.1c-0.7,0-1.3,0.1-1.8,0.3c-0.5,0.2-1,0.5-1.4,1s-0.7,0.9-0.9,1.5
			s-0.3,1.3-0.3,2c0,0.8,0.1,1.4,0.3,2s0.5,1.1,0.9,1.5c0.4,0.4,0.8,0.7,1.3,0.9c0.5,0.2,1.1,0.3,1.7,0.3c0.4,0,0.7,0,1-0.1
			c0.3,0,0.6-0.1,0.8-0.2c0.2-0.1,0.5-0.2,0.7-0.3c0.2-0.1,0.4-0.3,0.6-0.5C206.9,25.3,207,25.3,207.1,25.3z"/>
		<path class="st1" d="M217.7,15.5v1.4h-5.9V21h4.8v1.3h-4.8v4.2h5.9v1.4h-7.6V15.5H217.7z"/>
		<path class="st1" d="M221.9,22.7v5.1h-1.7V15.5h3.5c0.8,0,1.4,0.1,2,0.2c0.6,0.2,1,0.4,1.4,0.7c0.4,0.3,0.6,0.7,0.8,1.1
			c0.2,0.4,0.3,0.9,0.3,1.4c0,0.4-0.1,0.8-0.2,1.2c-0.1,0.4-0.3,0.7-0.6,1c-0.3,0.3-0.6,0.6-1,0.8s-0.8,0.4-1.3,0.5
			c0.2,0.1,0.4,0.3,0.5,0.5l3.6,4.9h-1.5c-0.3,0-0.5-0.1-0.7-0.4l-3.2-4.4c-0.1-0.1-0.2-0.2-0.3-0.3c-0.1-0.1-0.3-0.1-0.5-0.1H221.9
			z M221.9,21.5h1.7c0.5,0,0.9-0.1,1.3-0.2c0.4-0.1,0.7-0.3,0.9-0.5c0.2-0.2,0.4-0.5,0.6-0.8c0.1-0.3,0.2-0.6,0.2-1
			c0-0.7-0.2-1.3-0.7-1.7c-0.5-0.4-1.2-0.6-2.2-0.6h-1.8V21.5z"/>
		<path class="st1" d="M240.7,23.8c0.1,0.2,0.1,0.3,0.2,0.5c0.1-0.2,0.1-0.3,0.2-0.5c0.1-0.1,0.1-0.3,0.2-0.4l4.2-7.5
			c0.1-0.1,0.2-0.2,0.2-0.2c0.1,0,0.2,0,0.3,0h1.2v12.3h-1.5v-9c0-0.1,0-0.2,0-0.4s0-0.3,0-0.4l-4.2,7.7c-0.1,0.3-0.3,0.4-0.6,0.4
			h-0.2c-0.3,0-0.5-0.1-0.6-0.4l-4.3-7.7c0,0.1,0,0.3,0,0.4c0,0.1,0,0.3,0,0.4v9h-1.5V15.5h1.2c0.1,0,0.3,0,0.3,0
			c0.1,0,0.2,0.1,0.2,0.2l4.2,7.6C240.6,23.5,240.6,23.6,240.7,23.8z"/>
		<path class="st1" d="M257.8,15.5v1.4h-5.9V21h4.8v1.3h-4.8v4.2h5.9v1.4h-7.6V15.5H257.8z"/>
		<path class="st1" d="M270.8,21.7c0,0.9-0.1,1.8-0.4,2.5c-0.3,0.8-0.7,1.4-1.2,1.9c-0.5,0.5-1.2,1-1.9,1.2
			c-0.7,0.3-1.6,0.4-2.5,0.4h-4.6V15.5h4.6c0.9,0,1.7,0.1,2.5,0.4c0.7,0.3,1.4,0.7,1.9,1.3c0.5,0.5,0.9,1.2,1.2,1.9
			C270.6,19.9,270.8,20.7,270.8,21.7z M269.1,21.7c0-0.8-0.1-1.4-0.3-2c-0.2-0.6-0.5-1.1-0.9-1.5c-0.4-0.4-0.8-0.7-1.4-0.9
			c-0.5-0.2-1.1-0.3-1.8-0.3h-2.9v9.6h2.9c0.7,0,1.3-0.1,1.8-0.3c0.5-0.2,1-0.5,1.4-0.9c0.4-0.4,0.7-0.9,0.9-1.5
			S269.1,22.4,269.1,21.7z"/>
		<path class="st1" d="M275,27.8h-1.7V15.5h1.7V27.8z"/>
		<path class="st1" d="M287,25.3c0.1,0,0.2,0,0.2,0.1l0.7,0.7c-0.5,0.6-1.1,1-1.8,1.4c-0.7,0.3-1.6,0.5-2.6,0.5
			c-0.9,0-1.7-0.2-2.4-0.5c-0.7-0.3-1.3-0.7-1.8-1.3c-0.5-0.6-0.9-1.2-1.2-2c-0.3-0.8-0.4-1.6-0.4-2.5c0-0.9,0.2-1.8,0.4-2.5
			c0.3-0.8,0.7-1.4,1.3-2c0.5-0.6,1.2-1,1.9-1.3c0.8-0.3,1.6-0.5,2.5-0.5c0.9,0,1.7,0.1,2.3,0.4c0.7,0.3,1.2,0.7,1.7,1.1l-0.5,0.8
			c0,0.1-0.1,0.1-0.1,0.1c-0.1,0-0.1,0.1-0.2,0.1c-0.1,0-0.2,0-0.2-0.1c-0.1-0.1-0.2-0.1-0.3-0.2c-0.1-0.1-0.2-0.2-0.4-0.3
			s-0.3-0.2-0.5-0.3c-0.2-0.1-0.5-0.1-0.7-0.2c-0.3-0.1-0.6-0.1-1-0.1c-0.7,0-1.3,0.1-1.8,0.3c-0.5,0.2-1,0.5-1.4,1
			c-0.4,0.4-0.7,0.9-0.9,1.5s-0.3,1.3-0.3,2c0,0.8,0.1,1.4,0.3,2s0.5,1.1,0.9,1.5c0.4,0.4,0.8,0.7,1.3,0.9c0.5,0.2,1.1,0.3,1.7,0.3
			c0.4,0,0.7,0,1-0.1c0.3,0,0.6-0.1,0.8-0.2c0.2-0.1,0.5-0.2,0.7-0.3c0.2-0.1,0.4-0.3,0.6-0.5C286.8,25.3,286.9,25.3,287,25.3z"/>
		<path class="st1" d="M292,27.8h-1.7V15.5h1.7V27.8z"/>
		<path class="st1" d="M296.5,15.6c0.1,0,0.2,0.1,0.2,0.2l7.1,9.2c0-0.1,0-0.3,0-0.4c0-0.1,0-0.3,0-0.4v-8.7h1.5v12.3h-0.8
			c-0.1,0-0.2,0-0.3-0.1c-0.1,0-0.2-0.1-0.3-0.2l-7.1-9.2c0,0.1,0,0.3,0,0.4c0,0.1,0,0.3,0,0.4v8.7h-1.5V15.5h0.9
			C296.3,15.5,296.4,15.5,296.5,15.6z"/>
		<path class="st1" d="M315.8,15.5v1.4h-5.9V21h4.8v1.3h-4.8v4.2h5.9v1.4h-7.6V15.5H315.8z"/>
	</g>
</g>
</svg>
